# xmcd
#
# Track frame offsets: 
#        150
#        18122
#        45382
#        83516
#        100217
#        128444
#        154743
#        177162
#        199898
#        222444
#        240498
#        270000
#
# Disc length: 3894 seconds
#
# Revision: 0
# Processed by: cddbd v1.5.2PL0 Copyright (c) Steve Scherf et al.
# Submitted via: ExactAudioCopy v0.99pb4
#
DISCID=870f340c
DTITLE=Harmonica Hinds - Finally
DYEAR=2008
DGENRE=Blues
TTITLE0=Wake The Spirit
TTITLE1=Goin Down To The River
TTITLE2=It's So Cold
TTITLE3=You Got It Good
TTITLE4=Take Your Time
TTITLE5=Stop Complaining
TTITLE6=Imelda
TTITLE7=Harmonica Hinds Shuffle
TTITLE8=Don't You Still My Money
TTITLE9=Can't Stay Here For Ever
TTITLE10=That Old Dichotomy
TTITLE11=Connected With The Sun
EXTD=
EXTT0=
EXTT1=
EXTT2=
EXTT3=
EXTT4=
EXTT5=
EXTT6=
EXTT7=
EXTT8=
EXTT9=
EXTT10=
EXTT11=
PLAYORDER=
